<?xml version="1.0" encoding="UTF-8"?>
<svg id="Layer_1" data-name="Layer 1" xmlns="http://www.w3.org/2000/svg" viewBox="0 0 453 406.8">
  <defs>
    <style>
      .cls-1 {
        fill: #4890b9;
      }

      .cls-2 {
        fill: #5c3ed8;
      }

      .cls-3 {
        fill: #8e58ca;
      }

      .cls-4 {
        fill: #674cd5;
      }

      .cls-5 {
        fill: #f2f2f1;
      }

      .cls-6 {
        fill: #7d56cf;
      }

      .cls-7 {
        fill: #38a7a3;
      }

      .cls-8 {
        fill: #5b4ed6;
      }

      .cls-9 {
        fill: #f7f7f5;
      }

      .cls-10 {
        fill: #4d86c0;
      }

      .cls-11 {
        fill: #f9f9f5;
      }

      .cls-12 {
        fill: #f7f7f4;
      }

      .cls-13 {
        fill: #f7f6f1;
      }

      .cls-14 {
        fill: #5c3fd8;
      }

      .cls-15 {
        fill: #4399b1;
      }

      .cls-16 {
        fill: #f8f8f2;
      }

      .cls-17 {
        fill: #5860d2;
      }

      .cls-18 {
        fill: #f6f5ef;
      }

      .cls-19 {
        fill: #f7f6f3;
      }

      .cls-20 {
        fill: #507dc6;
      }

      .cls-21 {
        fill: #556ecd;
      }

      .cls-22 {
        fill: #f5f5f1;
      }

      .cls-23 {
        fill: #fafaf7;
      }

      .cls-24 {
        fill: #f8f7f4;
      }

      .cls-25 {
        fill: #9858c7;
      }

      .cls-26 {
        fill: #3da2a9;
      }

      .cls-27 {
        fill: #f6f6f3;
      }

      .cls-28 {
        fill: #7052d3;
      }
    </style>
  </defs>
  <path class="cls-2" d="M401.07,220.15c2.13,2.46,4.5,2.49,7,3.47.6.24.5,1.18.98,1.3,3.71.89,3.71-1.27,4.09-1.35,1.17-.26,2.64.18,3.96-.03,3.95-.64,6.93-8.58,8.9-8.17,2.45.51.04,7,.51,8.05.85,1.89,5.8,1.81,7.74,1.57,1.24-.15.91-1.1,1.51-1.37,5.47-2.44,10.36-4.85,6.88-11.91-5.16-10.45-27.46-21.64-26.4-33.42,1.15-12.73,20.17-15.28,30.19-14.13,1.47.17,3.52.55,4.52,1.63v10.26c0,1.45-2.54,3.01-4.1,2.4.09-15.87-26.8-10.88-19.03,3.65,3.26,6.1,14.52,12.58,19.48,17.77,2.53,2.65,4.43,5.94,5.7,9.34v6.15c-4.83,9.51-13.51,14.64-24.22,15.07-3.97.16-5.65-1.05-8.91-1.4-6.18-.67-14.38.06-20.85,0,.19-2.31.59-4.62.98-6.91.15-.9,1.04-1.81,1.07-1.98Z"/>
  <path class="cls-16" d="M236.4,153.15c1.27,5.09,3.03,10.07,4.34,15.15,4.93,19.17,4.18,37.94,4.43,57.66.55,43.52-1.31,89.1.78,132.67.24,4.98,1.74,10.3,1.4,15.35.99.16.92-1.19,1.15-1.91.48-1.51.79-2.97.92-4.56,2.02-26.33-.4-57.29-.47-84.04-.08-27.33-.13-54.73.48-82.1-1.29-15.5,2.32-30.62,6.62-45.37.35-1.19-.27-1.79,1.55-1.49-.08,3.06.13,6.16,0,9.23-1.15,27.26-1.33,54.2-1.08,81.36.32,34.97-.19,69.44,1.08,104.61.41,11.28-2.41,12.27-5.8,21.55-2.08,5.69-2.73,11.74-3.09,17.76l-1.29-5.2c.33-7.69-3.32-15.85-6.77-22.63-.83-1.63-2.75-2.68-2.86-4.68-.07-1.21.68-2.6.7-4.04.27-21.13-.55-41.99-.74-62.89-.39-44.33.46-88.59-2.74-132.64-.1-1.32-.66-4.45,1.39-3.79Z"/>
  <path class="cls-16" d="M261.69,361.68c-.34-.86-1.17-.93-1.39-3.06-1.21-12.19.19-27.74.05-40.39-.52-45.15-.39-90.21,0-135.3.12-14.45-.16-28.98-.02-43.45l8.91,12.67-1.43,5.41c-1.01,67.01,1.29,133.96.72,200.7-2.72-.09-3.61,2.96-6.84,2.06v1.36Z"/>
  <path class="cls-13" d="M234.36,358.26c-.09-2.72.07-5.48,0-8.2-2.08-.24-2.12,1.85-2.67,3.13-.36.83.34,1.23-1.42.97.34-2.17-1.69-4.95-1.87-6.59-.21-1.95,1.42-8.15,1.15-11.45-.07-.82-.63-1.62-.67-2.47l-2.04,1.37c-.73-49.62-.21-98.59-1.25-148.02-.17-7.88.54-16.59-.12-24.61-.19-2.27-2.17-7.84-2.06-8.85.13-1.23,7.04-12.29,8.33-14.29.45-.7,1.08-1.63,1.93-1.82.08,5.33-2.16,11.66-2.09,16.76.08,5.94,1.07,13.44,1.39,19.84,1.78,36.61,1.07,73.24,1.37,110.08.19,23.23.96,46.82.72,70.4-.01,1.15.45,3.06-.69,3.75ZM227.52,319.97v11.62c1.41.05,1.32.33,1.37-1.01.11-2.83,1.11-7.61.17-9.76-.42-.97-.14-1.03-1.54-.85Z"/>
  <path class="cls-7" d="M65.59,179.81l-8.2,48.54c-10.76-.38-19.99.84-30.41.68-7.14-.11-16.33.11-23.26-.65-1.04-.11-1.69-.06-2.35-1.06,2.09-2.49,5.45-1.54,6.1-5.5l-.37-53.03c-1.99-1.4-7.14-.26-6.43-4.03,5.15-.61,10.38.55,15.34.71,13.92.45,22.42-3.32,36.37,3.26,7.13,3.36,8.1,6.29,13.2,11.07ZM18.45,170.24v47.52c0,.21,1.42,3.38,1.73,3.74,2.39,2.82,12.66,2.39,16.37,2.06,4.56-.4,14-3.47,16.65-7.27,1.01-1.45,6.93-16.27,6.98-17.68.48-12.2-9.3-24.16-20.54-27.34-7.08-2-13.94-2.16-21.19-1.02Z"/>
  <path class="cls-25" d="M302,168.87c8.7-4.68,19.54-6.54,29.08-3.46l.64,7.56c6.01-4.93,12.49-7.75,20.16-8.88l-.68,5.47c-22.62,4.3-24.78,35.89-8.88,49.23l-1.37,7.52c-2.44-1.31-2.19-1.48-3.93-2.75-1.9-1.38-3.97-2.68-5.89-4.05-3.36,2.98-4.64,5.62-8.84,7.61-6.81,3.21-24.09,6.59-26.13-3.51-.47-2.33.37-6.84,1.19-9.14.53-1.51,1.92-1.17,3.29-1.15-.76,7.2,1.51,7.86,6.99,10.31.6.27.26,1.21,1.51,1.37s5,.18,6.06-.06c.49-.11.46-1.06.99-1.3,3.57-1.6,8.02-3.03,8.01-7.92-.01-9.85-20.49-20.16-24.25-29.05.83-1.24,3.2-6.55,3.39-7.91.17-1.22-.91-8.81-1.34-9.86ZM321.81,194.85c-.25-2.94.42-5.81,1.35-8.57,1.79-5.37,7.05-8.98,1.77-14.71-3.79-4.11-13.85-3.9-16.68,1.15-4.67,8.32,3.37,13.05,8.56,17.57,1.35,1.18,2.6,3.89,5.01,4.56Z"/>
  <path class="cls-14" d="M159.2,164.77c3.01.09,5.92.09,8.89.69v2.04c-1.52-.79-6.15,2.08-6.15,3.08v20.85c1.07-.12,1.06-1.55,2.01-2.43,4.28-3.96,19-15.31,19.73-20.63.17-1.24-.7-2.36-.56-3.6h11.61c-.6,1.95-.59,4.12-.68,6.15-4.63,1.68-7.29,6.74-11.63,9.22l-12.97,13.68c8.02,6.09,13.79,14.46,21.54,20.85,3.38,2.79,10.98,8.55,14.51,10.23,2.33,1.1,7.43-.32,6.01,3.5-4.76,2.37-9.44,2.31-14.42.68-5.32-1.74-13.14-8.15-17.4-11.99-6.29-5.68-11.23-12.69-17.75-18.13v23.59c0,4.11,5.34,2.27,7.51,4.11.99.84.11,1.69-.69,2.04-2.97,1.27-9.06-.43-12.6,1.06-2.84.33-5.31-.2-7.89-.71l1.37-8.2,1.36.69c.03-4.55-.02-9.13,0-13.68,1.93.51,1.61-2.77,1.83-3.98,2.28-13,4.08-26.1,6.37-39.09Z"/>
  <path class="cls-12" d="M186.97,103.51c2.1,1.18,7.09,2.23,10.13,2.49,10.04.85,21.28-.46,31.36-.74l1.81,4.81c-5.3.63-10.73,1.69-16.06,2.05-5.66.39-18.48,1.01-23.64.26-8.13-1.18-7.56-6.21-12.2-7.46s-8.46-.51-10.65,3.74c-5.15,10,5.16,19.12,14.39,12.34,3.58-2.63,2.52-4.09,8.28-4.7,6.77-.72,14.27-.42,21.1-.76,5.12-.26,10.25-.57,15.37-.68l-1.52,3.62c-5.46,1.25-11.36,2.94-16.92,3.56-6.19.68-14.11-.75-19.98,1.73-.79.33-.84,1.48-1.62,1.93-6.18,3.56-15.72,6.44-21.13.12-6.15-7.18-6.5-19.93,2.17-25.22,7.64-4.66,12.43-.85,19.13,2.91Z"/>
  <path class="cls-24" d="M293.24,124.95l-.13-1.19h-1.36s0,1.36,0,1.36l-1.11-1.39c-8.73,1.4-15.62-3.56-24.08-4.17l-.77-4.01c5.55.32,11.14.86,16.67,1.43,1.81.19,3.6,1.14,5.53,1.3,8.08.67,11.57-1.6,19.41,3.83,3.04,2.1,4.06,4.64,8.57,4.36,3.46-.22,7.26-5.49,7.51-8.77.11-1.36-.29-4.15-.82-5.4-.13-.3-3.53-4.58-3.78-4.76-2.08-1.52-6.88-1.45-9.21-.42-1.12.49-1.24,1.88-2.17,2.64-3.57,2.93-5.85,4.19-10.64,4.47-3.65.21-11.13-.4-15.02-.75-5.92-.54-12.2-1.91-18.12-2.72l2.15-5.39c9.43.96,20.88,2.31,30.31,1.3,8.65-.93,14.2-8.94,24.42-4.62,4.25,1.8,6.96,7.77,7.72,12.1,1.61,9.07-3.89,16.89-13.17,17.52-8.1.55-13.42-7.57-21.93-6.71Z"/>
  <path class="cls-10" d="M122.99,165.45l-.68,4.79c-3.11-1.7-7.56-1.93-10.84-.59-.9,3.73.89,25.79-.09,27.26-.04.06-1.21-.29-1.35.48l-4.8,30.97c-3.75-.13-7.99.36-11.62,0,.3-6.22.99-13.35,3.42-19.14.96,2.25,2.13,4.44,2.74,6.83h.68s0-46.83,0-46.83c-1.96-2.08-7.36-.19-6.83-4.44,8.85.46,18.28-.61,27.06-.05,1.28.08,2.05.7,2.31.73Z"/>
  <path class="cls-23" d="M226.84,335.01l2.04-1.37c.03.85.6,1.64.67,2.47.26,3.31-1.36,9.5-1.15,11.45.18,1.65,2.21,4.42,1.87,6.59,1.76.26,1.06-.14,1.42-.97.55-1.28.59-3.37,2.67-3.13.07,2.72-.09,5.48,0,8.2.02.68-.04,1.37,0,2.05-1.57,3.22-.99,6.88-.68,10.26l3.41-.69c.77,1.95,1.47,3.28,2.05,5.47.14.53-.02,1.14.68,1.37.07.21-.07.49,0,.68l.68.68c.07.2-.07.48,0,.68l.68,1.37c2.08,5.02,4.62,9.76,6.78,14.75.36.82-.35,1.24,1.41.97l12.68-30.06c.77-1.63.18-2.7-.37-4.13v-1.36c3.23.9,4.11-2.15,6.83-2.06-.02,2.55.39,3.51.49,5.4.45,8.33-13.21,31.92-18.16,39.51-.47.73-.71,2.19-.8,2.26-1.21,1.04-1.14-.32-1.41-.97-.72-1.69-6.61-14.1-7.13-14.74-.68-.83-2.45-.89-3.75-2.4-1.49-1.71-1.82-4.06-2.72-5.82-.31-1.59.05-1.87,1.39-2.4.41-2.12-1.98-3.41-3.44-1.7-.51-1.18-.91-2.22-1.37-3.42l-.68-2.05c-.25-.72-.45-1.32-.68-2.05l-.68-2.05c-.49-1.7-.96-2.91-1.37-4.79,2.77-.6,3.91-1.9,4.1-4.78l-4.78.68c-.55-7.77-.57-16.05-.68-23.93Z"/>
  <path class="cls-4" d="M395.61,165.45c3.79.07,8.75-1.02,11.61,1.72l-6.15,2.04c-.79.68-1.25,3.64-1.36,4.79-.98,10.7-.62,28.05-.03,38.99.11,1.97,1.55,6.04,1.39,7.15-.02.17-.91,1.08-1.07,1.98-.39,2.29-.79,4.6-.98,6.91-4.14-.04-9.43.47-13.36.03-.76-.08-2.18-.21-2.36-1.07-.45-2.15,3.88-1.39,4.78-2.9,1.28-2.16,1.48-5.56,1.37-8.04-.08-1.68.5-2.23-1.36-1.01.48-2.36.32-6.31.79-9.13,2.29-13.81,4.98-27.57,6.73-41.47Z"/>
  <path class="cls-9" d="M247.33,148.36l-1.41-.44c-3.61-6.72-10.07-13.27-13.49-19.86-.91-1.75-2.75-6.36-2.84-8.13-.21-4.48,7.83-16.76,10.92-20.44,1.87-2.23,4.45-3.84,5.8-6.52.85-.18,1.2.52,1.69,1.04,3.48,3.64,12.4,17.42,14.18,22.05,4.7,12.21-11.76,21.68-14.86,32.3ZM247.33,140.16c2.02-7.66,12.56-13.37,9.72-22.38l-9.72-17.96c-.4-.28-4.12,3.81-4.65,4.56-1.46,2.07-5.4,8.51-6.39,10.7s-1.68,4.38-1.07,6.78,8.23,15.06,10.05,17.11c.52.58,1.34.92,2.07,1.19Z"/>
  <path class="cls-28" d="M395.61,165.45c-1.75,13.9-4.44,27.66-6.73,41.47-.47,2.81-.3,6.77-.79,9.13-.6,2.9-6.04,5.86-8.37,7.51-3.07,2.17-1.94,1.85-5.98,3.43-.36-2,1.76-4.64,0-6.15,11.06-7.22,12.15-25.9,6.83-36.92l2.73-10.26c2.22,2.37,3.73,5.35,6.15,7.52v-10.6c0-1.58-5.29-2.22-6.51-3.05-.69-.47-1.37-1.16-.33-1.74,1.36-.76,10.6-.38,12.99-.33Z"/>
  <path class="cls-21" d="M122.99,165.45c1.37.16,2.79-.17,4.28.16,19.35,4.35,14.93,23.35,3.28,33.77-.17.78,3.78,4.49,4.74,5.72l-3.42,10.26c-1.51-1.72-3.26-3.39-4.77-5.14-1.24-1.44-3.06-4.9-4.8-5.8,1.96-1.67,1.32-5.09,2.05-7.52.14-.07,2.08-1.84,2.32-2.11,5.71-6.39,3.11-20.47-4.37-24.55l.68-4.79Z"/>
  <path class="cls-26" d="M65.59,179.81c.27.25,1.95,1.48,2.04,1.37l6.9-17.73c3.66-.46,3.49,1.99,4.72,4.05-2.51,1.86-1.43,11.94-3.42,12.99-.31.17-.95-.4-1.38.46-2.41,4.85-4.41,12.62-4.09,18.01.91.02,1.82-.02,2.74,0v4.79c-1.11.04-2.23-.17-3.33.09-.71,3.45-1.63,6.21-3.39,9.26-2.52,4.37-12.69,11.62-2.2,12.57l.04,2.69c-2.27-.05-4.57.08-6.84,0l8.2-48.54Z"/>
  <path class="cls-27" d="M255.06,41.24c-.34.16-.17,1.28-2.06,1.65-1.18.23-7.55-.07-8.54-.54-.49-.23-.54-.98-1.06-1.27-.68-.37-1.72-.32-2.45-.82-9.24-6.28-10.83-18.89-1.46-25.9,17.48-13.08,39.83,13.54,18.03,26.27-.71.42-1.69.26-2.45.62ZM257.35,18.01c-5.54-5.46-14.74-2.9-17.66,4.07-4.46,10.62,6.26,19.91,16.32,13.6,6.53-4.09,6.6-12.49,1.34-17.67Z"/>
  <path class="cls-24" d="M299.95,186.65c-.39.58-1.96,2.24-2.67,2.45-6.15,1.78-1.72-4.65-1.06-7.2,1.97-7.51-.78-11.57-5.49-17.14-7.12-8.43-16.46-17.55-24.25-25.65-1.27-1.32-5.54-3.95-5.39-5.34l2.06-3.76c2.13-.85,1.71.78,2.44,1.24,6.82,4.3,8.5,6.98,13.17,12.64,3.47,4.21,6.44,8.92,10.3,12.81,3.24,3.26,11.27,8.11,12.94,12.16.43,1.05,1.52,8.64,1.34,9.86-.19,1.36-2.57,6.68-3.39,7.91Z"/>
  <path class="cls-24" d="M211.81,145.63c3.66-3.01,5.46-6.78,8.87-9.93,1.33-1.23,8.09-6.77,9.52-5.75l1.48,4.31c-1.91,1.5-4.12,2.84-5.9,4.49-3.43,3.19-6.64,7.36-9.86,10.65-9.03,9.26-17.72,13.55-15.68,28.64.49,3.65,3.32,7.61,4.73,10.98-2.71,3.09-6.45-1.06-8.09-3.51-3.12-4.69-3.08-9.15-2.85-14.59.09-2.03.08-4.2.68-6.15.3-.97,1.16-2.51,1.75-3.38,3.17-4.68,8.63-7.73,12.6-10.98,1.73-1.42,3.22-2.01,2.73-4.79Z"/>
  <path class="cls-9" d="M258.95,137.43c.22,6.3-3.24,10.88-5.3,16.22-2.52,6.52-4.4,14.78-6.37,21.66-.22.78-.25,1.65-1.3,1.77,0-.96.07-1.96-.17-2.91-1.43-5.71-3.27-13.24-5.28-18.65-2.12-5.73-7.03-10.21-6.17-16.72,3.62-.27,2.52,2.58,2.95,3.26,1.58,2.52,5.35,5.26,6.74,8.57l3.29,7.98c-.06-1.18-.05-2.29.34-3.43,1.61-4.74,6.08-12.1,9.07-16.22.63-.86.84-1.83,2.21-1.54Z"/>
  <path class="cls-15" d="M88.14,188.02c-1.27.7-1.14,1.9-1.35,3.09-.62,3.56-.9,7.24-1.53,10.8-.19,1.07-1.19,1.72-1.21,1.83-3.63.08-7.3-.12-10.93,0v-4.79c2.72.05,5.47-.03,8.2,0,.81-.78-6.35-15.64-5.46-18.46,1.99-1.05.9-11.13,3.42-12.99,3.8,6.35,5.99,13.7,8.88,20.51Z"/>
  <path class="cls-22" d="M209.08,150.41c-.39-1.37-2.06-.01-2.74.33-5.78,2.95-10.64,7.79-17.54,4.57-12.92-6.04-6.76-26.88,5.46-24.03.5.12.46,1.05.98,1.31,2.05,1.02,3.61.05,3.6,3.8,0,2.48-.99,3.56-3.46,3.47-1.33-1.05.21-5.9-5.01-3.03-2.93,1.61-3.13,5.17-2.18,8.15.37,1.15,3.35,4.65,4.45,5.1,6.63,2.74,14-.21,19.16-4.46.49,2.78-1,3.37-2.73,4.79Z"/>
  <path class="cls-11" d="M290.39,81.36c.1,2.36.1,4.39-.47,6.71-2.7,10.97-15.85,6.39-22.98,13.24l-7.29,6.03c-3.38-5.41,1.89-9.85,6.35-12.44s10.79-4.17,14.78-7.09c3.55-2.59,4.73-7.59,9.61-6.45Z"/>
  <path class="cls-1" d="M97.02,209.21c-2.42,5.79-3.12,12.92-3.42,19.14-1.12-.11-1.99.15-2.74-1.04-.17-.85,1.44-1.52,1.27-3.22-.39-4.11-8.8-17.29-8.1-20.35.03-.12,1.02-.76,1.21-1.83.64-3.56.92-7.24,1.53-10.8.21-1.2.08-2.39,1.35-3.09,2.99,7.04,5.88,14.16,8.88,21.19Z"/>
  <path class="cls-19" d="M309.05,141.35c.12.21,1.03.13,1.14.64.92,4.02.42,9.35-2.36,12.55-1.65,1.9-5.75,4.64-8.23,4.77-4.79.25-3.06-.9-4.92-2.07-2.47-1.55-5.17-2.22-7.02-5.11,1.48-.52,2.58.85,4.42,1.05,6,.64,14-2.55,12.51-9.78-.61-2.96-3.04-4.95-6.07-4.95l-4.02,3.78c-1.65-7.11,5.1-9.08,10.85-6.42,4.45,2.05,2.48,3.34,3.7,5.56Z"/>
  <path class="cls-20" d="M111.37,196.9c3.17.8,10.1,1.33,12.98,0-.73,2.43-.09,5.85-2.05,7.52-2.05-1.07-8.28-.72-10.93-1.37v17.43c0,.47,1.51,4.5,2.03,4.8,1.07.62,6.77-.17,6.17,2.71-.48,2.31-11.95.43-14.35.35l4.8-30.97c.14-.76,1.31-.42,1.35-.48Z"/>
  <path class="cls-8" d="M159.2,164.77c-2.29,12.99-4.09,26.09-6.37,39.09-.21,1.22.1,4.5-1.83,3.98.06-12.83-.07-25.69.03-38.53-.35-1.52-8.02-.42-6.86-4.54,4.99.1,10.04-.15,15.03,0Z"/>
  <path class="cls-22" d="M215.44,87.3c3.09,1.39,5.94,3.98,8.41,5.58,3.41,2.21,11.63,5.24,11.85,10.02.06,1.3-2.2,4.77-3.42,3.33-2.21-2.62-4.11-5.22-7.24-6.98-5.02-2.82-13.69-2.27-15.94-7.98-1.39-3.53-2.09-7.74.99-10.6.85-.78.57-.84,1.35.05,1.41,1.61,3.09,4.58,4,6.59Z"/>
  <path class="cls-19" d="M360.07,115.55c2.1,1.74-7.08,3.39-7.66,3.61-2.32.9-4.13,2.86-6.35,3.93-3.32-2.3-6.52-4.75-10.87-4.12-1.57.22-2.76,1.67-4.5,1.36,1.06-3.26.28-5.12-.68-8.2.32-.31,7.11,1.42,8.5,1.34,2.73-.16,4.63-3.49,6.79-3.4,4.72.19,9.59,5.76,14.76,5.47Z"/>
  <path class="cls-22" d="M159.2,110.76c-.5,2.27.44,4.68.54,6.67.13,2.57-3.32.35-5.07.22-4.16-.33-6.1,2.16-8.92,4.67h-1.1c-3.22-2.68-7.19-4.84-11.41-5.41-1.75-1.18,4.36-4.61,5.44-5.15,6.58-3.26,6.04-.24,11.28.39,3.88.46,5.81-.86,9.24-1.39Z"/>
  <path class="cls-9" d="M226.81,122.41l.71,5.44c-3.05.28-6.46-.68-9.28.64-2.09.98-6.01,5.24-7.01,7.34-1.32,2.75-.65,7.11-3.87,7.13-2.72.01-2.5-1.53-2.33-3.73.43-5.51,2.32-9.22,6.42-12.75.31-.27,4.15-3,4.4-3.09,3.35-1.14,7.45-1.07,10.95-.97Z"/>
  <path class="cls-27" d="M272.45,123.96c.17.09.12.91.69,1.1,4.73,1.63,7.94,1.97,11.38,6.27,2.49,3.12,6.15,13.77.07,12.96-2.26-.3-1.73-4.41-2.74-6.86-2.35-5.72-9.4-9.43-15.37-9.58l.67-4.48c1.51.49,4.21.02,5.31.59Z"/>
  <path class="cls-6" d="M383.31,173.66l-2.73,10.26c-2.5-5.18-8.89-11.73-14.35-13.67l1.37-5.47c6.42,1.7,11.14,4.01,15.71,8.89Z"/>
  <path class="cls-17" d="M142.8,214.68c-2.34,2.34-1.33,6.64-2.73,9.57-3.39-3.26-5.24-5.53-8.2-8.89l3.42-10.26c2.49,3.19,4.72,6.62,7.52,9.57Z"/>
  <path class="cls-3" d="M342.31,218.78c2.14,1.79,4.5,3.09,7.03,4.26,1.58.73,5.77,2.45,7.32,2.58l-.68,4.79c-5.96-.2-9.86-1.33-15.03-4.1l1.37-7.52Z"/>
  <path class="cls-6" d="M373.74,226.99c-6.33,2.47-10.83,3.66-17.76,3.42l.68-4.79c2.16.18,7.02-.18,9.08-.71.56-.15.51-1.11,1-1.3,2.42-.91,4.7-1.27,7-2.78,1.76,1.51-.36,4.16,0,6.15Z"/>
  <path class="cls-18" d="M284.76,166.33c.16.08,2.31,2.53,2.39,2.69,1.59,3.18-.68,6.99-4.28,6.7l2.04,2.39c-1.29,2.03-3.42.44-4.7-.75-5.13-4.8-.65-13.61,4.55-11.02Z"/>
  <path class="cls-8" d="M149.63,220.83l-1.37,8.2c-2.74-.55-5.36-1.13-7.5-3.12-.66-.61-.6-1.57-.7-1.67,1.41-2.93.39-7.23,2.73-9.57,1.96,2.07,4.76,4.11,6.83,6.15Z"/>
  <path class="cls-3" d="M367.59,164.77l-1.37,5.47c-5.18-1.84-9.78-1.68-15.03-.68l.68-5.47c6.56-.97,9.27-1.02,15.71.68Z"/>
  <path class="cls-27" d="M316.77,111.73c.4,1.5,1.96.62,2.53,1.9,3.59,8.01-8.46,11.34-10.2,2.63-.66-3.31,5.04-7.04,7.67-4.52Z"/>
  <path class="cls-27" d="M258.09,89.75c.19.29,1.01,3.78.86,3.92-2.06-.63-5.14-.82-7.01-1.37-.68-.2-.73-1.38-1.66-1.93-1.07-.64-4.81-.39-5.93.01-.92.33-.8,1.53-1.64,1.91-.68.31-5.37.94-5.62.7-.56-5.02,4.62-5.78,8.63-6.09,2.41-.19,11.12.93,12.37,2.85Z"/>
  <path class="cls-22" d="M174.72,108.81c3.52-.54,8.44,4.68,4.99,8.46-4.68,5.13-12.4-.89-8.22-6.18.67-.84,2.19-2.12,3.23-2.28Z"/>
  <path class="cls-18" d="M213.05,174.89c-.6.34-2.54.34-3.15,0-.32-.18-3.3-5.05-3.37-5.76-.17-1.69,2.17-5.22,3.72-5.62,2.86-.74,6.24,4.13,5.55,6.92-.06.25-2.52,4.34-2.74,4.48Z"/>
  <path class="cls-5" d="M259.64,49.91c-2.23.35-4.3-.6-6.46-.71-3.9-.2-8.92.68-12.35.4-2.44-.2-2.79-2.35-1.01-3.46.77-.48,16.36-.66,18.12-.33,2.28.42,1.7,2.23,1.71,4.1Z"/>
  <path class="cls-27" d="M252.79.69c1.08,3.45,5.15,5.68,4.79,9.57-4.78-1.09-8.23-2.16-12.98,0-.75-.72,5.6-8.23,6.47-8.91.59-.46.76-.89,1.72-.66Z"/>
  <path class="cls-5" d="M258.27,85.46c-6.78-.97-13.08-2.36-19.81,0-.13-2-.25-2.72,1.64-3.48,4.01-1.61,11.17-1.42,15.25-.09,1.58.52,3.43,1.56,2.92,3.57Z"/>
  <path class="cls-5" d="M253.26,57.68c.18.06.23.85.75,1.06,1.19.45,2.91.39,4.19.81l.07,2.66c-5.42-1.73-10.82-1.3-16.39-1.01-1.17.06-1.74.85-2.73-.7,3.95-3.79,8.87-4.58,14.11-2.82Z"/>
  <path class="cls-27" d="M258.19,65.72l.08,1.97c-5.78-.7-12.81-2.61-18.11-.01-1.1-.75-1.25-1.83-1.04-3.05.04-.24,4-1.47,4.62-1.56,4.92-.7,10.17.36,14.45,2.66Z"/>
  <path class="cls-5" d="M258.18,77.35l.09,2.64c-6.5-2.24-13.12-1.8-19.81-.68-.82-3.24,5.51-3.92,7.86-4.09,4.41-.32,7.76.82,11.86,2.13Z"/>
  <path class="cls-5" d="M258.27,73.15c-6.32-.69-11.02-1.3-17.35-.61-.52.06-2.41,1.04-2.45-.41-.04-1.63,3.99-2.74,5.27-2.92,3.15-.44,11.37-.43,13.83,1.57.94.77.76,1.28.7,2.37Z"/>
  <path class="cls-5" d="M258.27,56.06c-4.4-1.14-8.06-1.51-12.64-1.36-1.16.04-2.29.65-3.44.71-3.42.15-3.78-2.08-1.37-2.81,3.41-1.03,14.14-1.44,16.75,1.09.85.83.8,1.25.69,2.38Z"/>
  <path class="cls-13" d="M237.09,369.88l-3.41.69c-.31-3.38-.89-7.04.68-10.26.24,4.08,1.27,5.85,2.73,9.57Z"/>
  <path class="cls-13" d="M227.52,358.94l4.78-.68c-.18,2.88-1.32,4.19-4.1,4.78-.35-1.62-.54-2.14-.68-4.1Z"/>
  <path class="cls-13" d="M232.99,377.4c1.46-1.71,3.85-.42,3.44,1.7-1.34.53-1.7.81-1.39,2.4-.78-1.52-1.31-2.37-2.05-4.1Z"/>
  <path class="cls-13" d="M230.26,369.88c-.22-.69-.47-1.3-.68-2.05l.68,2.05Z"/>
  <path class="cls-13" d="M231.62,373.98c-.3-.79-.45-1.38-.68-2.05l.68,2.05Z"/>
  <path class="cls-13" d="M239.82,376.72c-.71-.23-.54-.84-.68-1.37.77.18.52.86.68,1.37Z"/>
  <path class="cls-13" d="M241.19,380.14l-.68-1.37c.06.16.45.81.68,1.37Z"/>
  <path class="cls-13" d="M240.51,378.08l-.68-.68s.48.14.68.68Z"/>
  <path class="cls-23" d="M227.52,319.97c1.39-.18,1.11-.12,1.54.85.94,2.15-.06,6.94-.17,9.76-.05,1.34.04,1.06-1.37,1.01v-11.62Z"/>
  <path class="cls-22" d="M244.61,120.33c-.4-.41-6.09,3.46-6.16-.31-.04-2.49,2.61-3.23,3.71-4.53,2.39-2.84,3.33-6.57,3.82-10.2,3.03,2.23,2.53,8.23,4.73,11.15.91,1.21,3.56.62,3.45,3.58s-3.64.26-4.46,1.64l-2.03,13.7c-1.53,2.25-3.07-2.06-3.07-3.07v-11.96Z"/>
  <path class="cls-23" d="M248.52,19.26c5.32-1.08,8.23,5.08,4.99,9.13-.51.64-3.71,2.75-4.45,2.79-5.54.28-6.4-10.73-.54-11.92Z"/>
</svg>